<svg xmlns="http://www.w3.org/2000/svg" viewBox="0 0 200.2 397.69"><defs><style>.cls-1{fill:#f9b248;}</style></defs><g id="Layer_2" data-name="Layer 2"><g id="Layer_2-2" data-name="Layer 2"><path class="cls-1" d="M169.09,218.73a13.67,13.67,0,0,1-1.74,5.26l-4.79,8.29a13.88,13.88,0,0,1-18.91,5.06l-27.81-16.05-11.59-6.69L63,190.75l-25-14.45a13.88,13.88,0,0,1-5.07-18.9l4.79-8.3A13.9,13.9,0,0,1,56.55,144l64.86,37.46L136,189.92a176.18,176.18,0,0,1,24,19.37Q164.82,213.91,169.09,218.73Z"/><rect class="cls-1" x="81.47" y="44.53" width="37.25" height="149.77" rx="13.76" transform="translate(-53.37 146.4) rotate(-60)"/><rect class="cls-1" x="81.47" y="-26.36" width="37.25" height="149.77" rx="13.76" transform="translate(8.03 110.95) rotate(-60)"/><path class="cls-1" d="M192.38,254.73q-2.13-5-4.83-10a140.13,140.13,0,0,0-18.46-26q-4.26-4.81-9.07-9.44a176.18,176.18,0,0,0-24-19.37,122.37,122.37,0,0,0-14.61-8.43c-7.67-3.69-15-6-21.31-6-10.56,0-24.18,6.39-37.15,15.21l41.3,23.85a89.72,89.72,0,0,1,11.59,6.69A134.21,134.21,0,0,1,136.09,238c7.62,7.65,19.17,21.24,24.27,37.48a53.51,53.51,0,0,1,2.59,16.1c0,40.54-25.85,68.85-62.85,68.85s-62.85-28.31-62.85-68.85c0-19.32,11.71-36.68,21.42-47.75l.43-.5a8.82,8.82,0,0,0-2.16-13l-.6-.35-17-9.84a8.77,8.77,0,0,0-11.09,2,138,138,0,0,0-15.56,22.67C4.26,260.2,0,276,0,291.58a119.59,119.59,0,0,0,7.64,43.05,99.39,99.39,0,0,0,21.5,33.86c18.33,18.83,43.53,29.2,71,29.2s52.63-10.37,71-29.2a99.39,99.39,0,0,0,21.5-33.86,119.59,119.59,0,0,0,7.64-43.05A93.68,93.68,0,0,0,192.38,254.73Z"/></g></g></svg>